<svg width="32" height="32" viewBox="0 0 32 32" fill="none" xmlns="http://www.w3.org/2000/svg">
<g id="icon/editmov 32">
<path id="Icon" d="M14.9181 6.16443H8.09428C5.83307 6.16443 4 7.99744 4 10.2586V23.9059C4 26.167 5.83307 28 8.09428 28H21.7419C24.0031 28 25.8361 26.167 25.8361 23.9059L25.8361 17.0822M10.8238 21.1763L15.7892 20.1758C16.0528 20.1227 16.2949 19.9929 16.4849 19.8027L27.6005 8.6814C28.1335 8.14819 28.1331 7.28388 27.5997 6.75112L25.245 4.39917C24.7119 3.86663 23.848 3.86699 23.3153 4.39998L12.1985 15.5225C12.0088 15.7123 11.8793 15.9538 11.8261 16.2169L10.8238 21.1763Z" stroke="#797979" stroke-width="1.5" stroke-linecap="round" stroke-linejoin="round"/>
</g>
</svg>
