<svg width="40" height="40" viewBox="0 0 40 40" fill="none" xmlns="http://www.w3.org/2000/svg">
<g id="icon/make32">
<path id="Union" fill-rule="evenodd" clip-rule="evenodd" d="M20 3.25C19.4463 3.25 18.8987 3.27689 18.3585 3.32947L18.5038 4.82241C18.9958 4.77453 19.4949 4.75 20 4.75H20.75V3.25H20ZM15.1364 3.96723C14.0767 4.2883 13.0614 4.7115 12.1022 5.22528L12.8104 6.54755C13.6835 6.07991 14.6073 5.69487 15.5713 5.40279L15.1364 3.96723ZM9.37343 7.05187C8.52599 7.74815 7.74814 8.52599 7.05187 9.37343L8.21085 10.3257C8.84511 9.55371 9.55371 8.84511 10.3257 8.21085L9.37343 7.05187ZM5.22528 12.1022C4.7115 13.0614 4.2883 14.0767 3.96723 15.1364L5.40279 15.5713C5.69487 14.6073 6.07991 13.6835 6.54755 12.8104L5.22528 12.1022ZM3.32947 18.3585C3.27689 18.8988 3.25 19.4463 3.25 20C3.25 20.5537 3.27689 21.1013 3.32947 21.6415L4.82241 21.4962C4.77453 21.0042 4.75 20.5051 4.75 20C4.75 19.4949 4.77453 18.9958 4.82241 18.5038L3.32947 18.3585ZM3.96723 24.8636C4.2883 25.9233 4.7115 26.9386 5.22528 27.8978L6.54755 27.1896C6.07991 26.3165 5.69487 25.3927 5.40279 24.4287L3.96723 24.8636ZM7.05187 30.6266C7.74815 31.474 8.52599 32.2519 9.37343 32.9481L10.3257 31.7892C9.55371 31.1549 8.84511 30.4463 8.21085 29.6743L7.05187 30.6266ZM12.1022 34.7747C13.0614 35.2885 14.0767 35.7117 15.1364 36.0328L15.5713 34.5972C14.6073 34.3051 13.6835 33.9201 12.8104 33.4524L12.1022 34.7747ZM18.3585 36.6705C18.8987 36.7231 19.4463 36.75 20 36.75H20.75V35.25H20C19.4949 35.25 18.9958 35.2255 18.5038 35.1776L18.3585 36.6705ZM22.8602 5.01765C29.9154 6.35597 35.25 12.5558 35.25 20C35.25 27.7762 29.4291 34.194 21.9072 35.132L22.0928 36.6204C30.3562 35.59 36.75 28.5423 36.75 20C36.75 11.8219 30.8898 5.01405 23.1398 3.54393L22.8602 5.01765Z" fill="#A9A9A9"/>
<path id="Vector 4" d="M14 20.1111L18.6667 24L26 16" stroke="#A9A9A9" stroke-width="2" stroke-linecap="round" stroke-linejoin="round"/>
</g>
</svg>
